<?xml version="1.0" encoding="utf-8"?>
<!-- Generator: Adobe Illustrator 19.0.0, SVG Export Plug-In . SVG Version: 6.00 Build 0)  -->
<svg version="1.1" id="Ebene_1" xmlns="http://www.w3.org/2000/svg" xmlns:xlink="http://www.w3.org/1999/xlink" x="0px" y="0px"
	 width="600px" height="600px" viewBox="0 0 600 600" enable-background="new 0 0 600 600" xml:space="preserve">
<g>
	<path fill="#E22428" d="M520.7,206.1c-8.2,1.6-15.6,2.4-22.5,4.6c-17,5.5-27.1,20-28.3,39.6c-0.5,7.3-0.5,14.7-1.8,21.8
		c-3.7,20.1-16.7,32.3-36.9,35.1c-4.9,0.7-9.9,1-14.9,1c-78.2,0.1-156.3,0.1-234.5,0c-5.1,0-10.4-0.4-15.4-1.5
		c-23.8-5.1-35.5-21-36.2-47.4c-0.3-9-1.5-18.4-4.6-26.8c-6.7-17.5-21.9-23.4-39.2-25.2c-2.1-0.2-4.2-0.2-6.7-0.4
		c0.3-26.6,5.3-50.9,27.4-68.1c15.9-12.4,34.9-16.4,54.5-16.5c92.3-0.3,184.6-0.2,276.9-0.1c13.2,0,26.2,2.3,38.5,7.4
		c25.4,10.5,38.1,30.6,42,57C519.9,193.4,520.2,200,520.7,206.1z"/>
	<path fill="#E22629" d="M300.2,325.2c44.6,0,89.3,0,133.9,0c3.2,0,6.4,0,9.5,0.5c18.8,3.2,27.8,16.5,25.8,37.8
		c-1.8,19.3-12.9,29-33.5,29.3c-9.7,0.1-19.3,0-29,0c-80.1,0-160.3,0-240.4,0c-3.7,0-7.4-0.1-10.9-0.7c-14.9-2.6-23.4-11.8-24.8-27
		c-0.4-4.1-0.4-8.3,0-12.4c1.6-16.2,11.5-25.8,27.9-27.3c2.5-0.2,5-0.2,7.5-0.2C210.9,325.2,255.6,325.2,300.2,325.2z"/>
	<path fill="#E22529" d="M299.8,477.4c-44.8,0-89.6,0-134.4,0c-3,0-6-0.1-8.9-0.7c-16.2-2.9-24.2-11.3-25.6-27.8
		c-0.4-5.2-0.4-10.7,0.7-15.9c3.2-15.3,14.1-23.1,32-23.5c6.5-0.2,13,0,19.5,0c83.5,0,166.9,0,250.4,0c4.1,0,8.4,0.3,12.4,1.1
		c13.6,2.7,21.8,11.7,23.2,25.7c0.5,5.3,0.5,10.7-0.2,15.9c-2.1,15.6-13.9,24.9-31.6,25.1c-20.8,0.1-41.6,0-62.5,0
		C349.8,477.4,324.8,477.4,299.8,477.4z"/>
	<path fill="#E22529" d="M486.1,350.4c0-30.2,0-60.3,0-90.5c0-1.7,0-3.3,0.1-5c1.2-23,15.6-32.6,37.2-30.9
		c27.4,2.1,43.1,18.7,46.4,47.8c0.8,6.6,1.2,13.3,1.2,19.9c0.1,32.8,0.2,65.6-0.2,98.5c-0.3,18.9-2.7,37.5-9.9,55.2
		c-5,12.4-12.2,22.9-24.9,28.6c-9.2,4.1-18.7,4.5-28.3,1.8c-14.5-4-21.6-14.6-21.6-32.5C486.1,412.4,486.1,381.4,486.1,350.4z"/>
	<path fill="#E22529" d="M113.8,351c0,30.7,0,61.3-0.1,92c0,4-0.4,8-1.3,11.9c-3.8,16.2-19.1,25.1-37.6,22.3
		c-17.7-2.7-28.1-14-34.9-29.5c-7.9-18.2-10.5-37.5-10.8-57c-0.5-36-0.3-72-0.1-107.9c0.1-11.5,2.6-22.7,7.6-33.3
		c11.6-24.9,40.8-29.6,59.1-22.8c12,4.5,18.1,15,18.1,31C113.9,288.7,113.8,319.8,113.8,351z"/>
</g>
</svg>
